# xmcd
#
# Track frame offsets:
#	150
#	21223
#	36886
#	58059
#	74867
#	91316
#	112769
#	119578
#	138935
#	155226
#	168600
#	184037
#
# Disc length: 2734 seconds
# Revision: 0
# Processed by: cddbd v1.5.2PL0 Copyright (c) Steve Scherf et al.
# Submitted via: dBpowerAMP V12.0
#
DISCID=ae0aac0c
DTITLE=The Black Dahlia Murder - Ritual
DYEAR=2011
DGENRE=Metal
TTITLE0=A Shrine to Madness
TTITLE1=Moonlight Equilibrium
TTITLE2=On Stirring Seas of Salted Blood
TTITLE3=Conspiring with the Damned
TTITLE4=The Window
TTITLE5=Carbonized in Cruciform
TTITLE6=Den of the Picquerist
TTITLE7=Malenchanments of the Necrosphere
TTITLE8=The Grave Robber's Work
TTITLE9=The Raven
TTITLE10=Great Burning Nullifier
TTITLE11=Blood in the Ink
EXTD=
EXTT0=
EXTT1=
EXTT2=
EXTT3=
EXTT4=
EXTT5=
EXTT6=
EXTT7=
EXTT8=
EXTT9=
EXTT10=
EXTT11=
PLAYORDER=
